<svg id="Flat_Revise" height="512" viewBox="0 0 512 512" width="512" xmlns="http://www.w3.org/2000/svg" data-name="Flat Revise"><g><rect fill="#f1f1f1" height="464" rx="10" width="344" x="40" y="24"/><g fill="#faa231"><path d="m96 352h80v80h-80z"/><path d="m96 208h80v80h-80z"/><g><path d="m72 88h24v64h16v-64h24v-16h-64z"/><path d="m352 72h-64v16h24v64h16v-64h24z"/><path d="m152 80v64a8 8 0 0 0 8 8h40v-16h-32v-16h32v-16h-32v-16h32v-16h-40a8 8 0 0 0 -8 8z"/><path d="m216 80v32a8 8 0 0 0 8 8h32v16h-40v16h48a8 8 0 0 0 8-8v-32a8 8 0 0 0 -8-8h-32v-16h40v-16h-48a8 8 0 0 0 -8 8z"/></g></g><g><path d="m144 272a8 8 0 0 1 -5.657-2.343l-24-24 11.314-11.314 17.891 17.891 42.378-49.44 12.148 10.412-48 56a8 8 0 0 1 -5.767 2.788c-.102.006-.207.006-.307.006z" fill="#fac850"/><path d="m144 416a8 8 0 0 1 -5.657-2.343l-24-24 11.314-11.314 17.891 17.891 42.378-49.44 12.148 10.412-48 56a8 8 0 0 1 -5.767 2.788c-.102.006-.207.006-.307.006z" fill="#fac850"/><g fill="#d4d4d4"><path d="m216 200h120v16h-120z"/><path d="m216 240h120v16h-120z"/><path d="m216 280h120v16h-120z"/><path d="m216 344h120v16h-120z"/><path d="m216 384h120v16h-120z"/><path d="m216 424h120v16h-120z"/></g></g><g><path d="m472 392v8l-16 64h-16l-16-64v-8z" fill="#faa231"/><path d="m424 120h48v272h-48z" fill="#4d4d4d"/><path d="m448 48a24 24 0 0 1 24 24v48a0 0 0 0 1 0 0h-48a0 0 0 0 1 0 0v-48a24 24 0 0 1 24-24z" fill="#faa231"/></g></g></svg>