<?xml version="1.0" encoding="UTF-8" standalone="no"?>
<!-- Created with Inkscape (http://www.inkscape.org/) -->

<svg
   width="200mm"
   height="125mm"
   viewBox="0 0 200 125"
   version="1.1"
   id="svg11019"
   xmlns="http://www.w3.org/2000/svg"
   xmlns:svg="http://www.w3.org/2000/svg">
  <defs
     id="defs11016" />
  <g
     id="layer1">
    <g
       id="g912"
       transform="translate(-11.37989,-89.487324)">
      <path
         id="path10425"
         style="font-size:47.625px;line-height:0.65;font-family:'Modern No. 20';-inkscape-font-specification:'Modern No. 20, ';fill:#000000;fill-opacity:1;stroke:#020302;stroke-width:18;stroke-linecap:round;stroke-linejoin:round;stroke-miterlimit:4;stroke-dasharray:none;stroke-opacity:1;paint-order:stroke fill markers"
         d="m 150.97073,126.06926 -2.61801,6.07456 7.85537,0.0702 2.61803,-6.07457 z m -93.068883,0.54022 c -4.37406,-0.0391 -7.46314,2.03385 -9.2667,6.21862 l -8.59599,19.94518 c -1.80355,4.18477 -0.5181,6.29678 3.85596,6.33588 l 3.97224,0.0355 1.32827,3.46749 8.8821,0.0793 -1.99102,-5.04877 c 1.55185,-1.03636 2.77872,-2.60079 3.6805,-4.69317 l 8.59599,-19.94519 c 1.80355,-4.18477 0.51811,-6.2968 -3.85596,-6.33588 z m 79.000763,2.9926 -2.13817,4.96118 -2.45493,-0.0219 -2.72715,6.32778 2.45492,0.0219 -5.4543,12.65557 c -1.80356,4.18477 -0.51811,6.2968 3.85595,6.33588 l 3.79354,0.0339 2.72716,-6.32779 -1.65148,-0.0151 c -0.74389,-0.007 -0.95572,-0.38147 -0.63573,-1.12394 l 4.95243,-11.49107 2.81186,0.0252 2.72715,-6.32779 -2.81186,-0.0252 2.13817,-4.96119 z m -79.362593,3.35632 1.87474,0.017 c 0.74389,0.007 0.95572,0.38147 0.63573,1.12393 l -7.59222,17.61595 c -0.31999,0.74245 -0.85205,1.11065 -1.59594,1.104 l -1.87473,-0.017 c -0.74389,-0.007 -0.95572,-0.38149 -0.63573,-1.12395 l 7.59222,-17.61615 c 0.31999,-0.74247 0.85205,-1.11065 1.59593,-1.10401 z m 13.62199,1.03651 -8.18146,18.98337 c -1.80355,4.18477 -0.72628,6.29493 3.23121,6.33029 l 0.80345,0.007 c 2.29118,0.0205 4.11017,-1.04727 5.45761,-3.2034 l -1.39625,3.23969 7.45389,0.0666 10.88683,-25.2606 -7.58756,-0.0678 -7.50511,17.41405 c -0.43634,1.01244 -1.05659,1.51518 -1.85999,1.50801 l -0.75842,-0.007 c -0.74388,-0.007 -0.95571,-0.38148 -0.63573,-1.12394 l 7.67957,-17.81885 z m 27.94035,0.24968 c -4.37407,-0.0391 -7.46265,2.03385 -9.26621,6.21862 l -5.47608,12.70611 c -1.80356,4.18478 -0.5186,6.29679 3.85547,6.33587 l 5.44549,0.0487 c 4.37405,0.0391 7.462643,-2.03384 9.266203,-6.21862 l 0.98173,-2.2779 -7.185603,-0.0642 -0.61076,1.41714 c -0.34907,0.80996 -0.89559,1.2117 -1.63948,1.20505 l -1.96383,-0.0175 c -0.74389,-0.007 -0.95595,-0.38093 -0.63599,-1.12334 l 1.44005,-3.34133 11.381093,0.10173 3.70888,-8.60569 c 1.80356,-4.18477 0.51859,-6.29678 -3.85547,-6.33586 z m 20.799333,0.18586 c -4.37407,-0.0391 -7.46315,2.03384 -9.2667,6.21861 l -1.26534,2.93593 c -1.789,4.15103 -0.54121,6.24588 3.74358,6.28417 l 2.72274,0.0243 c 0.7439,0.007 0.95599,0.38088 0.636,1.12335 l -0.87285,2.02523 c -0.31998,0.74246 -0.8518,1.11009 -1.59569,1.10344 l -0.53565,-0.005 c -0.74389,-0.007 -0.95596,-0.38092 -0.63597,-1.12338 l 0.72013,-1.67093 -7.3643,-0.0658 -0.8946,2.07576 c -1.80356,4.18477 -0.5186,6.29679 3.85546,6.33587 l 4.37422,0.0391 c 4.37407,0.0391 7.46315,-2.03384 9.26671,-6.21862 l 1.19999,-2.78433 c 0.85815,-1.99115 1.00643,-3.51411 0.44565,-4.56935 -0.5165,-1.08871 -1.92006,-1.64325 -4.21124,-1.66372 l -2.72275,-0.0243 c -0.74389,-0.007 -0.95573,-0.38145 -0.63575,-1.12391 l 0.95996,-2.22739 c 0.31999,-0.74245 0.85181,-1.11008 1.59568,-1.10341 l 0.44606,0.004 c 0.7439,0.007 0.95597,0.3809 0.63599,1.12336 l -0.74169,1.72093 7.23063,0.0646 0.91615,-2.12575 c 1.80356,-4.18477 0.51859,-6.29679 -3.85547,-6.33587 z m 27.49383,0.24568 -10.88683,25.26062 7.58805,0.0678 10.88683,-25.26061 z m 17.27312,0.15436 c -2.26142,-0.0202 -4.11556,0.50518 -5.56293,1.57635 -1.44737,1.07117 -2.60782,2.61936 -3.48051,4.64426 l -5.47608,12.70611 c -0.87269,2.02489 -1.05045,3.58183 -0.534,4.67055 0.5165,1.08872 1.90527,1.64312 4.16669,1.66333 l 5.66827,0.0507 c 2.26142,0.0202 4.11606,-0.50522 5.56343,-1.57639 1.44737,-1.07118 2.60732,-2.61934 3.48001,-4.64423 l 5.47608,-12.7061 c 0.87269,-2.0249 1.05103,-3.58187 0.53449,-4.67059 -0.51649,-1.08871 -1.90576,-1.64309 -4.16717,-1.66331 z m 15.35384,0.13721 -10.88684,25.2606 7.58756,0.0678 7.50511,-17.41405 c 0.43635,-1.01244 1.0566,-1.51519 1.86,-1.508 l 0.75841,0.007 c 0.74389,0.007 0.95597,0.38091 0.63598,1.12337 l -7.67982,17.81942 7.58805,0.0678 8.18146,-18.98336 c 1.80355,-4.18478 0.72627,-6.29492 -3.23121,-6.33029 l -0.80346,-0.007 c -2.29117,-0.0205 -4.11015,1.04723 -5.4576,3.20339 l 1.39624,-3.23968 z m -81.731733,5.21542 1.963843,0.0175 c 0.74389,0.007 0.95596,0.38092 0.63598,1.12337 l -1.374473,3.18915 -4.19551,-0.0375 1.37446,-3.18915 c 0.31999,-0.74246 0.85181,-1.11008 1.5957,-1.10343 z m 66.035103,0.64081 1.20494,0.0105 c 0.74389,0.007 0.95596,0.38092 0.63598,1.12338 l -4.77796,11.08626 c -0.31999,0.74246 -0.85203,1.11061 -1.59592,1.10396 l -1.20495,-0.0105 c -0.74389,-0.007 -0.95573,-0.38147 -0.63574,-1.12393 l 4.77796,-11.08625 c 0.31999,-0.74245 0.85181,-1.11008 1.59569,-1.10344 z m -93.268153,23.4575 -14.00672,32.49967 6.96281,0.0622 8.8578,-20.55268 -2.29905,13.5478 5.35589,0.0478 9.43958,-13.58546 -8.90137,20.65376 6.91826,0.0618 14.00672,-32.49967 -8.52516,-0.0762 -12.12538,17.32206 2.84179,-17.40502 z m 51.372843,0.45906 -7.58429,20.71678 6.1148,0.0546 10.26247,-20.69285 z m -18.47375,7.10187 c -4.374063,-0.0391 -7.462653,2.03384 -9.266213,6.21862 l -5.47608,12.70612 c -1.80355,4.18477 -0.51859,6.29678 3.85547,6.33587 l 5.44548,0.0487 c 4.374073,0.0391 7.462663,-2.03385 9.266223,-6.21862 l 0.98174,-2.27792 -7.1856,-0.0642 -0.61101,1.41774 c -0.34907,0.80995 -0.89535,1.21112 -1.639243,1.20448 l -1.96432,-0.0176 c -0.7439,-0.007 -0.95597,-0.38092 -0.63598,-1.12339 l 1.44003,-3.34129 11.381593,0.10174 3.70887,-8.60567 c 1.80356,-4.18478 0.51859,-6.2968 -3.85547,-6.33588 z m -0.81209,5.9385 1.96433,0.0175 c 0.74389,0.007 0.95573,0.38147 0.63574,1.12393 l -1.37447,3.18918 -4.19599,-0.0375 1.37447,-3.18919 c 0.31999,-0.74246 0.85204,-1.11062 1.59592,-1.10397 z m 9.39271,11.16215 -3.57798,8.30195 7.67717,0.0685 3.57797,-8.30195 z" />
      <path
         style="font-size:47.625px;line-height:1.25;fill:#000000;fill-opacity:1;stroke:#000000;stroke-width:0.264583px;stroke-linecap:butt;stroke-linejoin:miter;stroke-opacity:1"
         d="m 38.325067,182.11187 11.53601,19.98096 h 70.315283 l 20.1705,-43.65937 h 49.11077 l 15.01853,-19.73201 v -5.11571 l -12.67992,-22.5091 H 32.770877 l -12.86235,29.81725 22.84753,39.57309 z"
         id="path10310" />
      <path
         id="path10026"
         style="font-size:47.625px;line-height:0.65;font-family:'Modern No. 20';-inkscape-font-specification:'Modern No. 20, ';fill:#ffffff;fill-opacity:1;stroke:#020302;stroke-width:18;stroke-linecap:round;stroke-linejoin:round;stroke-miterlimit:4;stroke-dasharray:none;stroke-opacity:1;paint-order:stroke fill markers"
         d="m 139.10255,105.53875 -2.61801,6.07456 7.85537,0.0702 2.61803,-6.07457 z m -93.068893,0.54022 c -4.37406,-0.0391 -7.46314,2.03385 -9.2667,6.21862 l -8.59599,19.94518 c -1.80355,4.18477 -0.5181,6.29678 3.85596,6.33588 l 3.97224,0.0355 1.32827,3.46749 8.8821,0.0793 -1.99102,-5.04877 c 1.55185,-1.03636 2.77872,-2.60079 3.6805,-4.69317 l 8.59599,-19.94519 c 1.80355,-4.18477 0.51811,-6.2968 -3.85596,-6.33588 z m 79.000773,2.9926 -2.13817,4.96118 -2.45493,-0.0219 -2.72715,6.32778 2.45492,0.0219 -5.4543,12.65557 c -1.80356,4.18477 -0.51811,6.2968 3.85595,6.33588 l 3.79354,0.0339 2.72716,-6.32779 -1.65148,-0.0151 c -0.74389,-0.007 -0.95572,-0.38147 -0.63573,-1.12394 l 4.95243,-11.49107 2.81186,0.0252 2.72715,-6.32779 -2.81186,-0.0252 2.13817,-4.96119 z m -79.362593,3.35632 1.87473,0.017 c 0.74389,0.007 0.95572,0.38147 0.63573,1.12393 l -7.59222,17.61595 c -0.31999,0.74245 -0.85205,1.11065 -1.59593,1.104 l -1.87474,-0.017 c -0.74389,-0.007 -0.95572,-0.38149 -0.63573,-1.12395 l 7.59222,-17.61615 c 0.31999,-0.74247 0.85205,-1.11065 1.59594,-1.10401 z m 13.62198,1.03651 -8.18145,18.98337 c -1.80356,4.18477 -0.72628,6.29493 3.2312,6.33029 l 0.80346,0.007 c 2.29117,0.0205 4.11016,-1.04727 5.4576,-3.2034 l -1.39625,3.23969 7.4539,0.0666 10.88683,-25.2606 -7.58756,-0.0678 -7.50512,17.41405 c -0.43634,1.01244 -1.05659,1.51518 -1.85999,1.50801 l -0.75841,-0.007 c -0.74389,-0.007 -0.95572,-0.38148 -0.63574,-1.12394 l 7.67958,-17.81885 z m 27.94037,0.24968 c -4.37407,-0.0391 -7.46266,2.03385 -9.26622,6.21862 l -5.47608,12.70611 c -1.80356,4.18478 -0.5186,6.29679 3.85547,6.33587 l 5.44549,0.0487 c 4.37406,0.0391 7.46265,-2.03384 9.26621,-6.21862 l 0.98173,-2.2779 -7.1856,-0.0642 -0.61076,1.41714 c -0.34907,0.80996 -0.89559,1.2117 -1.63948,1.20505 l -1.96384,-0.0175 c -0.74389,-0.007 -0.95595,-0.38093 -0.63599,-1.12334 l 1.44005,-3.34133 11.3811,0.10173 3.70887,-8.60569 c 1.80356,-4.18477 0.51859,-6.29678 -3.85546,-6.33586 z m 20.799323,0.18586 c -4.37407,-0.0391 -7.46315,2.03384 -9.266703,6.21861 l -1.26534,2.93593 c -1.789,4.15103 -0.54121,6.24588 3.743583,6.28417 l 2.72274,0.0243 c 0.7439,0.007 0.95599,0.38088 0.636,1.12335 l -0.87285,2.02523 c -0.31998,0.74246 -0.8518,1.11009 -1.59569,1.10344 l -0.53565,-0.005 c -0.74389,-0.007 -0.95596,-0.38092 -0.63597,-1.12338 l 0.72013,-1.67093 -7.364303,-0.0658 -0.8946,2.07576 c -1.80355,4.18477 -0.51859,6.29679 3.85546,6.33587 l 4.374223,0.0391 c 4.37407,0.0391 7.46315,-2.03384 9.26671,-6.21862 l 1.19999,-2.78433 c 0.85815,-1.99115 1.00643,-3.51411 0.44565,-4.56935 -0.5165,-1.08871 -1.92006,-1.64325 -4.21124,-1.66372 l -2.72275,-0.0243 c -0.74389,-0.007 -0.95573,-0.38145 -0.63575,-1.12391 l 0.95996,-2.22739 c 0.31999,-0.74245 0.85181,-1.11008 1.59568,-1.10341 l 0.44606,0.004 c 0.7439,0.007 0.95597,0.3809 0.63599,1.12336 l -0.74169,1.72093 7.23063,0.0646 0.91615,-2.12575 c 1.80356,-4.18477 0.51859,-6.29679 -3.85547,-6.33587 z m 27.49383,0.24568 -10.88683,25.26062 7.58805,0.0678 10.88683,-25.26061 z m 17.27312,0.15436 c -2.26142,-0.0202 -4.11556,0.50518 -5.56293,1.57635 -1.44737,1.07117 -2.60782,2.61936 -3.48051,4.64426 l -5.47608,12.70611 c -0.87269,2.02489 -1.05045,3.58183 -0.534,4.67055 0.5165,1.08872 1.90527,1.64312 4.16669,1.66333 l 5.66827,0.0507 c 2.26142,0.0202 4.11606,-0.50522 5.56343,-1.57639 1.44737,-1.07118 2.60732,-2.61934 3.48001,-4.64423 l 5.47608,-12.7061 c 0.87269,-2.0249 1.05103,-3.58187 0.53449,-4.67059 -0.51649,-1.08871 -1.90576,-1.64309 -4.16717,-1.66331 z m 15.35384,0.13721 -10.88684,25.2606 7.58756,0.0678 7.50511,-17.41405 c 0.43635,-1.01244 1.0566,-1.51519 1.86,-1.508 l 0.75841,0.007 c 0.74389,0.007 0.95597,0.38091 0.63598,1.12337 l -7.67982,17.81942 7.58805,0.0678 8.18146,-18.98336 c 1.80355,-4.18478 0.72627,-6.29492 -3.23121,-6.33029 l -0.80346,-0.007 c -2.29117,-0.0205 -4.11015,1.04723 -5.4576,3.20339 l 1.39624,-3.23968 z m -81.731723,5.21542 1.96384,0.0175 c 0.74389,0.007 0.95596,0.38092 0.63598,1.12337 l -1.37447,3.18915 -4.19551,-0.0375 1.37446,-3.18915 c 0.31999,-0.74246 0.85181,-1.11008 1.5957,-1.10343 z m 66.035093,0.64081 1.20494,0.0105 c 0.74389,0.007 0.95596,0.38092 0.63598,1.12338 l -4.77796,11.08626 c -0.31999,0.74246 -0.85203,1.11061 -1.59592,1.10396 l -1.20495,-0.0105 c -0.74389,-0.007 -0.95573,-0.38147 -0.63574,-1.12393 l 4.77796,-11.08625 c 0.31999,-0.74245 0.85181,-1.11008 1.59569,-1.10344 z m -93.268153,23.4575 -14.00673,32.49967 6.96281,0.0622 8.8578,-20.55268 -2.29905,13.5478 5.3559,0.0478 9.43958,-13.58546 -8.90137,20.65376 6.91826,0.0618 14.00673,-32.49967 -8.52517,-0.0762 -12.12539,17.32206 2.8418,-17.40502 z m 51.372843,0.45906 -7.58429,20.71678 6.1148,0.0546 10.26247,-20.69285 z m -18.473743,7.10187 c -4.37406,-0.0391 -7.46265,2.03384 -9.26621,6.21862 l -5.47609,12.70612 c -1.80355,4.18477 -0.51859,6.29678 3.85547,6.33587 l 5.44549,0.0487 c 4.37407,0.0391 7.46265,-2.03385 9.26621,-6.21862 l 0.98174,-2.27792 -7.18559,-0.0642 -0.61101,1.41774 c -0.34907,0.80995 -0.89535,1.21112 -1.63924,1.20448 l -1.96432,-0.0176 c -0.7439,-0.007 -0.95597,-0.38092 -0.63598,-1.12339 l 1.44003,-3.34129 11.38158,0.10174 3.708873,-8.60567 c 1.80356,-4.18478 0.51859,-6.2968 -3.855473,-6.33588 z m -0.81209,5.9385 1.96432,0.0175 c 0.74389,0.007 0.95573,0.38147 0.63574,1.12393 l -1.37446,3.18918 -4.19599,-0.0375 1.37447,-3.18919 c 0.31999,-0.74246 0.85204,-1.11062 1.59592,-1.10397 z m 9.392703,11.16215 -3.577983,8.30195 7.677173,0.0685 3.57797,-8.30195 z" />
    </g>
  </g>
</svg>
